<?xml version="1.0" standalone="no"?>
<!DOCTYPE svg PUBLIC "-//W3C//DTD SVG 20010904//EN"
 "http://www.w3.org/TR/2001/REC-SVG-20010904/DTD/svg10.dtd">
<svg version="1.0" xmlns="http://www.w3.org/2000/svg"
 width="639.000000pt" height="361.000000pt" viewBox="0 0 639.000000 361.000000"
 preserveAspectRatio="xMidYMid meet">

<g transform="translate(0.000000,361.000000) scale(0.100000,-0.100000)"
fill="#000000" stroke="none">
<path d="M2845 2950 c-3 -5 -1 -10 4 -10 6 0 11 5 11 10 0 6 -2 10 -4 10 -3 0
-8 -4 -11 -10z"/>
<path d="M3513 2900 c0 -36 1 -57 4 -47 4 17 7 17 31 -5 l26 -23 -17 28 c-14
22 -15 31 -6 50 12 22 12 22 -9 4 -21 -19 -21 -19 -25 20 -2 22 -4 11 -4 -27z"/>
<path d="M2681 2893 c1 -32 4 -48 6 -35 3 15 11 22 28 22 13 0 28 8 34 17 15
27 -5 53 -39 53 -30 0 -30 0 -29 -57z m54 22 c0 -13 -8 -21 -22 -23 -19 -3
-23 1 -23 23 0 22 4 26 23 23 14 -2 22 -10 22 -23z"/>
<path d="M3122 2938 c-19 -19 -15 -73 8 -93 17 -15 24 -16 45 -7 14 6 25 17
25 24 0 9 -3 9 -12 0 -22 -22 -57 -14 -64 13 -12 48 20 80 58 56 16 -10 19
-10 16 1 -6 17 -60 22 -76 6z"/>
<path d="M3220 2895 c0 -59 17 -76 22 -23 2 22 9 34 21 36 14 3 17 -4 17 -32
0 -20 5 -36 10 -36 11 0 13 39 4 64 -3 9 -17 16 -30 16 -15 0 -24 6 -24 15 0
8 -4 15 -10 15 -5 0 -10 -25 -10 -55z"/>
<path d="M2781 2875 l2 -40 6 34 c4 21 14 37 26 42 17 6 15 7 -7 6 -26 -1 -28
-4 -27 -42z"/>
<path d="M2840 2880 c0 -22 5 -40 10 -40 6 0 10 18 10 40 0 22 -4 40 -10 40
-5 0 -10 -18 -10 -40z"/>
<path d="M2888 2895 c-9 -21 -8 -28 7 -45 22 -24 38 -25 55 -5 11 13 8 14 -20
9 -30 -7 -31 -6 -28 22 3 25 7 29 31 27 15 -1 25 2 22 8 -13 19 -55 9 -67 -16z"/>
<path d="M2981 2906 c-27 -32 15 -92 49 -71 19 12 10 22 -15 17 -14 -2 -25 0
-25 6 0 6 12 12 28 14 19 2 27 9 27 23 0 25 -46 33 -64 11z m49 -6 c0 -5 -9
-10 -21 -10 -11 0 -17 5 -14 10 3 6 13 10 21 10 8 0 14 -4 14 -10z"/>
<path d="M3327 2914 c-12 -13 -8 -61 8 -74 15 -12 55 -5 55 10 0 5 -7 7 -15 4
-8 -4 -23 -3 -32 2 -15 6 -12 8 12 13 39 8 43 45 5 49 -14 2 -29 0 -33 -4z
m48 -14 c4 -6 -5 -10 -20 -10 -15 0 -24 4 -20 10 3 6 12 10 20 10 8 0 17 -4
20 -10z"/>
<path d="M3420 2905 c-26 -31 8 -83 45 -69 23 9 18 23 -6 17 -25 -7 -39 11
-31 39 3 15 11 19 28 15 13 -2 24 0 24 4 0 15 -47 10 -60 -6z"/>
<path d="M3592 2908 c-30 -30 5 -89 44 -74 24 9 15 24 -11 18 -18 -3 -25 0
-25 10 0 11 7 14 24 11 27 -5 39 7 30 31 -7 19 -45 21 -62 4z m48 -8 c0 -5 -9
-10 -20 -10 -11 0 -20 5 -20 10 0 6 9 10 20 10 11 0 20 -4 20 -10z"/>
<path d="M3681 2878 c1 -44 3 -43 13 4 3 14 14 29 24 31 10 3 6 5 -10 6 -26 1
-28 -1 -27 -41z"/>
<path d="M3082 2683 c-2 -40 -6 -53 -17 -53 -9 0 -20 10 -25 23 l-9 22 0 -22
c-1 -27 -31 -32 -31 -5 -1 16 -1 16 -11 0 -5 -10 -14 -18 -19 -18 -6 0 -10 8
-10 18 -1 16 -1 16 -14 0 -20 -28 -44 -23 -38 7 4 21 1 25 -21 25 -31 0 -43
-16 -27 -35 10 -12 9 -15 -10 -15 -13 0 -24 8 -27 20 -8 30 -21 24 -15 -6 4
-20 -1 -31 -19 -45 -13 -10 -18 -19 -11 -19 6 0 20 8 30 18 16 16 35 18 141
17 67 0 126 2 132 6 6 3 9 30 6 60 l-3 54 -2 -52z m-191 -26 c-1 -12 -15 -9
-19 4 -3 6 1 10 8 8 6 -3 11 -8 11 -12z"/>
<path d="M3123 2675 c0 -33 2 -45 4 -27 2 18 2 45 0 60 -2 15 -4 0 -4 -33z"/>
<path d="M3512 2678 c-2 -54 0 -58 23 -64 28 -7 75 18 75 39 0 7 -7 22 -15 33
-15 19 -15 19 -30 0 -20 -27 -19 -35 8 -46 19 -8 17 -9 -13 -7 -34 2 -35 3
-41 52 l-6 50 -1 -57z m78 -13 c0 -8 -4 -15 -10 -15 -5 0 -10 7 -10 15 0 8 5
15 10 15 6 0 10 -7 10 -15z"/>
<path d="M3327 2664 c-15 -8 -27 -20 -27 -27 -1 -7 -6 -5 -14 6 -18 23 -24 21
-19 -6 9 -48 -55 -64 -69 -17 -6 23 -7 23 -5 -5 2 -26 6 -30 34 -33 21 -2 35
3 45 15 10 15 26 18 78 17 36 0 82 6 104 14 38 15 38 15 15 28 -13 7 -33 13
-44 13 -20 -1 -18 -2 25 -15 13 -5 13 -6 0 -14 -18 -12 -70 -13 -69 -2 6 34
-16 45 -54 26z m43 -19 c0 -10 -10 -15 -32 -15 -31 1 -32 1 -14 15 25 19 46
19 46 0z"/>
<path d="M3466 2092 c-3 -5 -19 -7 -36 -4 l-30 4 0 -231 0 -231 40 2 40 1 2
146 2 146 6 -150 c3 -98 8 -144 14 -132 5 10 6 59 4 108 -3 49 -2 89 3 89 5 0
9 -48 9 -106 l0 -106 29 4 c27 4 29 1 50 -63 12 -37 28 -72 36 -79 16 -13 21
0 6 16 -5 5 -28 72 -51 149 -24 77 -50 158 -60 180 -33 75 -55 160 -55 213 0
54 -1 57 -9 44z m-9 -239 c-2 -32 -3 -8 -3 52 0 61 1 87 3 58 2 -29 2 -78 0
-110z"/>
<path d="M2747 1869 c-4 -121 -5 -225 -1 -230 19 -32 24 11 24 221 0 127 -4
230 -8 230 -5 0 -12 -99 -15 -221z"/>
<path d="M2782 1861 c-2 -160 1 -232 8 -225 7 7 8 84 2 235 l-9 224 -1 -234z"/>
<path d="M2810 1860 c0 -223 1 -230 20 -230 19 0 20 7 20 230 0 223 -1 230
-20 230 -19 0 -20 -7 -20 -230z"/>
<path d="M2872 1865 l-2 -231 25 -2 25 -2 -2 227 c-2 170 -6 227 -15 231 -10
3 -13 -31 -15 -145 l-2 -148 -6 150 c-6 147 -6 145 -8 -80z"/>
<path d="M2940 1987 c0 -57 -3 -158 -7 -225 -5 -109 -4 -122 11 -128 10 -4 22
-2 27 3 5 5 7 96 2 231 -5 176 -9 222 -20 222 -10 0 -13 -24 -13 -103z"/>
<path d="M2990 1860 c0 -147 4 -230 10 -230 6 0 10 83 10 230 0 147 -4 230
-10 230 -6 0 -10 -83 -10 -230z"/>
<path d="M3044 1860 c0 -145 2 -203 6 -150 l6 85 2 -82 c2 -66 5 -83 17 -83
13 0 14 32 12 227 -1 170 -5 227 -14 231 -10 3 -13 -31 -15 -145 l-2 -148 -6
150 c-5 135 -6 127 -6 -85z"/>
<path d="M3110 1997 c0 -52 -3 -155 -7 -230 -6 -136 -6 -137 15 -137 22 0 22
1 22 230 0 198 -2 230 -15 230 -12 0 -15 -17 -15 -93z"/>
<path d="M3162 1865 c-2 -225 -1 -231 18 -231 19 0 20 6 18 231 -2 175 -3 195
-5 83 -2 -84 -8 -148 -13 -148 -5 0 -11 64 -13 148 -2 112 -3 92 -5 -83z"/>
<path d="M3210 1860 c0 -140 4 -230 10 -230 5 0 11 37 13 83 l3 82 2 -82 c2
-67 5 -83 17 -83 13 0 15 29 13 227 -2 167 -6 227 -15 230 -9 3 -13 -32 -16
-144 l-3 -148 -2 148 c-1 90 -6 147 -12 147 -6 0 -10 -83 -10 -230z"/>
<path d="M3312 1865 c-2 -224 -1 -231 18 -232 19 -2 20 4 20 222 0 138 -4 226
-10 230 -6 4 -11 -46 -12 -142 l-2 -148 -6 150 c-6 147 -6 145 -8 -80z"/>
<path d="M3367 1869 c-4 -121 -5 -225 -1 -230 19 -32 24 11 24 221 0 127 -4
230 -8 230 -5 0 -12 -99 -15 -221z"/>
<path d="M2940 1590 c0 -5 5 -10 10 -10 15 0 12 -47 -2 -53 -7 -3 1 -5 17 -5
17 0 24 2 18 5 -7 2 -13 20 -13 39 0 24 -5 34 -15 34 -8 0 -15 -4 -15 -10z"/>
<path d="M3000 1589 c0 -6 7 -9 15 -6 23 9 26 -9 5 -28 -27 -25 -25 -35 8 -35
20 0 23 3 13 9 -12 8 -12 12 -2 25 7 9 11 23 7 31 -6 17 -46 21 -46 4z"/>
<path d="M3070 1591 c0 -6 8 -11 18 -11 15 0 15 -2 2 -11 -11 -8 -12 -12 -2
-16 17 -7 15 -21 -5 -27 -11 -3 -7 -4 7 -3 22 2 25 7 25 37 0 29 -4 36 -22 38
-13 2 -23 -1 -23 -7z"/>
<path d="M3144 1574 c-13 -19 -14 -28 -5 -37 6 -6 11 -7 11 -1 0 5 5 2 10 -6
14 -22 28 2 22 40 -5 37 -16 38 -38 4z"/>
<path d="M3200 1580 c0 -11 7 -20 15 -20 24 0 17 -28 -7 -33 -16 -4 -13 -5 7
-4 38 2 47 33 13 46 -17 7 -19 10 -5 10 24 1 22 21 -3 21 -13 0 -20 -7 -20
-20z"/>
<path d="M3270 1586 c-17 -21 -9 -60 14 -64 36 -7 43 42 8 51 -15 4 -15 5 1 6
9 0 17 6 17 11 0 15 -26 12 -40 -4z m30 -47 c0 -5 -4 -9 -10 -9 -5 0 -10 7
-10 16 0 8 5 12 10 9 6 -3 10 -10 10 -16z"/>
<path d="M3330 1590 c0 -5 7 -10 15 -10 13 0 14 -4 5 -21 -6 -11 -9 -25 -7
-32 2 -7 12 5 21 27 20 48 21 46 -9 46 -14 0 -25 -4 -25 -10z"/>
<path d="M3397 1594 c-4 -4 -7 -22 -7 -41 0 -29 3 -33 26 -33 23 0 25 3 22 37
-3 36 -23 54 -41 37z m33 -54 c0 -5 -4 -10 -10 -10 -5 0 -10 5 -10 10 0 6 5
10 10 10 6 0 10 -4 10 -10z"/>
<path d="M3453 1583 c-4 -10 2 -23 15 -34 20 -16 21 -18 5 -22 -14 -4 -13 -5
4 -6 24 -1 38 27 28 59 -8 24 -43 27 -52 3z m37 -13 c0 -5 -4 -10 -10 -10 -5
0 -10 5 -10 10 0 6 5 10 10 10 6 0 10 -4 10 -10z"/>
<path d="M3524 1586 c-11 -28 0 -61 21 -61 16 0 20 7 20 35 0 25 -5 36 -18 38
-9 2 -20 -3 -23 -12z m36 -26 c0 -10 -4 -21 -9 -24 -12 -8 -22 20 -15 39 8 19
24 9 24 -15z"/>
</g>
</svg>
